<svg width="10" height="18" viewBox="0 0 10 18" fill="none" xmlns="http://www.w3.org/2000/svg">
<path d="M7.97914 0.00359757C8.16286 0.00434154 8.34659 0.00329123 8.53032 0.00175951C8.67308 0.000796713 8.8158 0.000884195 8.95856 0.0012343C9.0264 0.0012343 9.09419 0.000971701 9.16203 0.000359013C9.25625 -0.000428729 9.35038 0.000184004 9.4446 0.00119056L9.60639 0.00132195C9.7946 0.0377769 9.85988 0.0975139 9.97258 0.247623C10.0002 0.387403 10.0002 0.387403 9.9995 0.546877L10 0.635367C10.0001 0.731374 9.99927 0.82738 9.99766 0.923374C9.99744 0.990332 9.99735 1.05729 9.99735 1.12429C9.99704 1.26442 9.99601 1.40455 9.99443 1.54464C9.99242 1.72416 9.99174 1.90363 9.99156 2.0831C9.99138 2.22131 9.99067 2.35951 9.98981 2.49772C9.98945 2.56389 9.98914 2.63006 9.98892 2.69623C9.98844 2.78872 9.98757 2.88121 9.98631 2.97369C9.98587 3.02629 9.98542 3.0789 9.98488 3.13308C9.9729 3.26393 9.9611 3.33658 9.88285 3.44235C9.75826 3.52301 9.65821 3.541 9.51033 3.54244L9.39592 3.54419L9.27299 3.54493L9.1448 3.54686C9.00944 3.54892 8.87413 3.55036 8.73877 3.55176C7.77114 3.49968 7.77114 3.49968 6.92169 3.83622C6.7782 4.06305 6.73787 4.27627 6.73302 4.53933L6.73033 4.66935L6.72804 4.80808L6.72522 4.95136C6.72232 5.10208 6.71957 5.2528 6.71696 5.40352L6.71113 5.71044C6.70633 5.96098 6.70171 6.21153 6.69736 6.46203L6.80656 6.46085C7.14651 6.45735 7.48646 6.45468 7.82646 6.45297C8.00121 6.45205 8.17596 6.45078 8.35076 6.44881C8.51946 6.44693 8.68816 6.44588 8.85694 6.4454C8.92124 6.44509 8.98553 6.44448 9.04987 6.44352C9.14005 6.44225 9.23023 6.44221 9.3205 6.44216L9.47596 6.44098C9.64573 6.46693 9.71914 6.51757 9.83799 6.63708C9.90421 6.7843 9.88886 6.94693 9.88936 7.10575L9.88981 7.19402C9.89026 7.29004 9.89035 7.38605 9.89039 7.48211L9.89084 7.68286C9.89111 7.82307 9.8912 7.96329 9.89115 8.10347C9.89115 8.2829 9.89178 8.46233 9.89254 8.64176C9.89304 8.77996 9.89313 8.91817 9.89313 9.05637C9.89313 9.1225 9.89335 9.18867 9.89371 9.25479C9.89416 9.3474 9.89402 9.43996 9.89371 9.53256L9.89393 9.69204C9.88263 9.83488 9.86612 9.92652 9.79312 10.0506C9.61913 10.1768 9.49436 10.1981 9.27972 10.1968H9.10559C9.04332 10.1961 8.98104 10.1954 8.91877 10.1947C8.68661 10.1944 8.45446 10.1931 8.22231 10.1909C8.05056 10.1896 7.87886 10.189 7.70711 10.1883C7.37053 10.1869 7.03394 10.1847 6.69736 10.1819L6.69763 10.2982C6.6996 11.2314 6.70108 12.1646 6.70202 13.0978C6.70247 13.5491 6.7031 14.0004 6.70413 14.4517C6.70503 14.845 6.70561 15.2383 6.70579 15.6315C6.70592 15.8398 6.70619 16.0482 6.70682 16.2564C6.70745 16.4524 6.70763 16.6485 6.7075 16.8445C6.7075 16.9164 6.70772 16.9884 6.70803 17.0604C6.70848 17.1586 6.70839 17.2569 6.70817 17.3551L6.70839 17.5217C6.69758 17.6627 6.67313 17.7589 6.60762 17.8843C6.45678 17.9985 6.28145 17.985 6.09835 17.9852L5.99856 17.9863C5.8899 17.9874 5.78128 17.9877 5.67261 17.9881L5.44563 17.9892C5.28712 17.99 5.12861 17.9903 4.9701 17.9905C4.76713 17.9909 4.56417 17.9921 4.36122 17.9943C4.205 17.9956 4.04877 17.9959 3.8925 17.996C3.81771 17.9961 3.74287 17.9967 3.66804 17.9976C3.56332 17.9988 3.45869 17.9986 3.35397 17.9981L3.26065 18C3.10088 17.9976 3.0251 17.977 2.89813 17.8804C2.76789 17.7211 2.76627 17.6412 2.76703 17.4393L2.76645 17.345C2.76609 17.241 2.7673 17.1371 2.76852 17.0332C2.76861 16.9585 2.76856 16.8839 2.76843 16.8093C2.76838 16.6068 2.76968 16.4044 2.77125 16.202C2.77264 15.9904 2.77278 15.7788 2.77305 15.5671C2.77376 15.1665 2.7756 14.7658 2.77785 14.3652C2.78036 13.9091 2.78157 13.4529 2.78269 12.9967C2.78507 12.0585 2.78897 11.1202 2.794 10.1819L2.70184 10.1825C2.38522 10.1845 2.06865 10.1858 1.75203 10.1867C1.6339 10.1872 1.51572 10.1878 1.39759 10.1885C1.22772 10.1896 1.0579 10.1901 0.888085 10.1905L0.728002 10.1919H0.578329L0.447005 10.1925C0.315817 10.181 0.220028 10.1507 0.10203 10.0944C-0.0143531 9.94713 0.000901277 9.78919 0.000676946 9.60897L0.000228531 9.51532C-0.00022013 9.41339 9.35166e-05 9.31147 0.000362714 9.20954L0.000138848 8.99668C4.24984e-06 8.84806 0.000138602 8.69944 0.000587263 8.55082C0.00112566 8.3604 0.000811424 8.16999 0.000273031 7.97953C-4.10326e-05 7.83305 4.86998e-05 7.68653 0.000273031 7.54006C0.000362763 7.46986 0.000273496 7.39962 4.91653e-05 7.32942C-0.000105186 7.23128 0.000103846 7.13313 0.000676946 7.03498L0.000901496 6.86575C0.0117591 6.73105 0.0207771 6.65761 0.10203 6.54956C0.24264 6.45407 0.364093 6.45135 0.532521 6.4521H0.684886L0.848648 6.4535L1.0169 6.45385C1.16406 6.45428 1.31131 6.45507 1.45851 6.45604C1.6089 6.45691 1.75925 6.45735 1.90964 6.45779C2.20441 6.4587 2.49918 6.46019 2.794 6.46203L2.79279 6.36488C2.78915 6.05862 2.78646 5.75236 2.78471 5.44606C2.78381 5.28869 2.78251 5.13136 2.78045 4.97399C2.7625 3.56988 2.93344 2.35488 3.91565 1.25418L3.98452 1.17436C5.01402 0.0725688 6.56204 -0.00252932 7.97918 0.00359757H7.97914Z" fill="#3C69D6"/>
</svg>