<svg xmlns="http://www.w3.org/2000/svg" width="512" height="512"><path d="M202 177h83l1 19 7-3.625c16.486-8.306 34.378-14.646 53-15.375l2.926-.156c21.618-.634 41.01 6.6 56.824 21.344 27.257 28.71 26.72 68.984 26.554 105.885-.019 4.932-.02 9.865-.024 14.798-.01 9.306-.034 18.613-.064 27.92-.04 12.6-.056 25.2-.073 37.8-.029 19.803-.088 39.606-.143 59.409h-83l-.078-37.965c-.025-7.934-.051-15.868-.082-23.803-.049-12.595-.093-25.19-.111-37.785-.013-9.173-.04-18.346-.084-27.52-.022-4.855-.038-9.71-.037-14.566 0-4.575-.017-9.148-.05-13.723a596.46 596.46 0 0 1-.004-5.024c.11-14.15.11-14.15-6.866-26.051-8.272-4.81-17.939-4.699-27.168-2.875-11.73 3.3-20.884 9.354-27.09 20.006-1.608 3.718-1.813 6.29-1.829 10.33l-.02 2.07c-.018 2.275-.016 4.55-.013 6.825l-.031 4.91c-.028 4.433-.037 8.866-.043 13.3-.01 4.636-.036 9.273-.06 13.909-.044 8.776-.072 17.552-.095 26.328-.033 11.861-.088 23.723-.142 35.585-.085 18.683-.138 37.366-.197 56.049h-83V177z" fill="#414141"/><path d="M80 177h83v267H80V177z" fill="#424242"/><path d="M143.313 73.938C151.204 79.995 158.308 87.944 160 98c1.023 12.82.063 23.886-8.371 34.223-7.437 8.114-16.126 12.897-27.121 14.035-9.892.43-19.998-2.034-27.668-8.504-9.475-9.032-14.527-17.667-15.09-30.941.196-11.674 5.03-22.053 13.375-30.126 14.42-11.788 32.521-11.913 48.188-2.75z" fill="#414141"/></svg>