<svg xmlns="http://www.w3.org/2000/svg" width="512" height="512"><path d="m347 17 1.899.925c44.892 22.063 75.227 64.516 91.437 110.927C446.974 148.797 451.208 169.968 452 191c.04 1.034.04 1.034.083 2.088 1.463 42.812-10.09 88.955-39.583 121.162A569.464 569.464 0 0 1 407 320l-2.313 2.469c-4.65 4.85-9.579 8.788-15.082 12.636-2.29 1.666-4.3 3.393-6.355 5.332C368.345 353.714 348.021 361.08 329 366c-.906.235-1.812.47-2.746.71-31.069 7.432-62.362-1.401-89.041-17.74-8.656-5.413-8.656-5.413-11.213-7.97-3.366 14.635-6.728 29.264-9.625 44-9.12 46.147-9.12 46.147-20.438 67.251a367.838 367.838 0 0 0-2.5 4.769c-3.676 6.983-7.945 13.5-12.437 19.98l-1.32 1.915c-18.856 27.26-18.856 27.26-24.68 33.085-3.438.188-3.438.188-7 0-2.615-2.615-3.634-5.633-5-9l-1.5-3.543c-25.085-60.948 3.697-144.992 20.96-205.56.493-1.731.98-3.463 1.468-5.195C174.73 250.538 174.73 250.538 183 234c-.605-.23-1.21-.461-1.832-.7-2.764-1.658-3.481-3.221-4.856-6.113l-1.261-2.582c-7.369-18.27.062-43.061 7.035-60.386 2.489-5.75 5.83-10.49 9.914-15.219l2.05-2.566c9.314-11.152 22.426-20.025 36.95-22.434 8.509-.667 16.512 1.656 23.121 7.09 10.7 10.878 14.034 25.723 13.952 40.54-.649 21.002-7.144 41.532-13.215 61.496-6.098 20.06-11.703 41.734-1.538 61.433 5.822 9.432 13.064 14.49 23.68 17.441 16.915 3.928 34.339-2.142 48.883-10.695 26.013-17.533 40.583-44.837 46.858-75.037.85-4.409 1.577-8.83 2.259-13.268l.36-2.234c1.926-12.55 1.845-25.225 1.89-37.891l.016-2.565c.169-35.147-5.085-74.583-30.739-100.85C334.393 57.855 318.494 50.636 302 48l-2.887-.465C281.63 45.501 263.62 48.655 247 54l-2.293.722C225.112 61.018 206.614 70.889 190 83l-1.692 1.225C180.023 90.275 172.42 96.925 165 104l-2.363 2.203c-23.07 22.127-42.105 54.87-43.042 87.188-.25 23.04 6.48 43.537 22.405 60.609l3.242 1.984C148 258 148 258 148.942 260.852c.164 8.826-2.873 17.535-5.817 25.773l-.703 2.044c-1.65 4.389-3.306 7.02-7.422 9.331-12.787 1.57-27.48-6.178-37.396-13.724-22.128-17.601-33.34-45.227-36.585-72.741-1.143-10.508-1.296-20.699-.206-31.222l.272-2.63C64.768 144.044 78.415 112.42 98 85l1.19-1.67C115.686 60.456 136.584 42.005 161 28l2.032-1.171C217.748-4.31 289.723-11.417 347 17zM97 121l1 2zm-1 2 1 2zm-1 2 1 2z"/></svg>