<svg xmlns="http://www.w3.org/2000/svg" width="512" height="512"><path d="M5 0c19.497-.374 38.994-.656 58.494-.829 9.055-.082 18.108-.195 27.162-.378 7.895-.16 15.788-.263 23.685-.298 4.18-.021 8.354-.07 12.531-.187 25.401-.684 25.401-.684 31.581 3.256 3.735 3.642 5.934 7.707 7.78 12.544 1.064 2.625 2.616 4.784 4.298 7.048L173.5 25.5a9708.23 9708.23 0 0 0 16.157 23.548c2.282 3.317 4.562 6.635 6.843 9.952l2.75 4 61.876 90.002 2.736 3.978c2.368 3.444 4.735 6.89 7.099 10.336l1.478 2.155 2.77 4.039A720.948 720.948 0 0 0 284 186c3.908-3.807 7.51-7.8 11.063-11.938l1.714-1.988A4077.64 4077.64 0 0 0 302 166l1.578-1.837c3.479-4.05 6.951-8.106 10.422-12.163 6.689-7.82 13.397-15.62 20.142-23.392A3771.733 3771.733 0 0 0 351 109c6.689-7.82 13.397-15.62 20.142-23.392A3771.733 3771.733 0 0 0 388 66c6.689-7.82 13.397-15.62 20.142-23.392 6.703-7.728 13.35-15.502 19.995-23.28.521-.61 1.042-1.22 1.58-1.847.975-1.141 1.95-2.282 2.924-3.425a128.511 128.511 0 0 1 2.859-3.229c1.6-1.834 1.6-1.834 2.813-4.227C440.308 3.46 441.77 1.914 445 0c7.677-1.54 15.726-.842 23.5-.563 2.18.046 4.36.087 6.54.124C480.36-.341 485.68-.19 491 0c-.943 1.272-1.887 2.542-2.833 3.811l-1.593 2.144c-2.146 2.789-4.47 5.298-6.887 7.857-4.359 4.668-8.435 9.496-12.44 14.473-2.335 2.822-4.767 5.52-7.247 8.215-4.114 4.47-7.97 9.09-11.785 13.816-2.88 3.49-5.922 6.814-8.969 10.157-2.308 2.597-4.502 5.261-6.683 7.965-3.86 4.772-7.935 9.293-12.09 13.808-3.22 3.586-6.232 7.321-9.258 11.07-2.88 3.49-5.922 6.814-8.969 10.157-2.308 2.597-4.502 5.261-6.683 7.965-3.86 4.772-7.935 9.293-12.09 13.808-3.22 3.586-6.232 7.321-9.258 11.07-2.171 2.631-4.417 5.163-6.715 7.684a234.263 234.263 0 0 0-9 10.5c-3.611 4.464-7.387 8.73-11.254 12.973-2.308 2.597-4.502 5.261-6.683 7.964-3.86 4.773-7.935 9.294-12.09 13.81-3.212 3.576-6.219 7.3-9.23 11.046-2.99 3.608-6.172 7.019-9.395 10.418-1.994 2.47-3.178 4.175-3.848 7.289 1.13 2.692 1.13 2.692 3.188 5.313l2.273 3.19 1.249 1.712c1.79 2.478 3.51 5.003 5.233 7.528 1.394 2.043 2.797 4.08 4.202 6.116 2.789 4.044 5.573 8.092 8.355 12.141l2.75 4 60.5 88 1.375 2 2.754 4.007 6.8 9.888a10299.69 10299.69 0 0 1 16.48 24.031 9130.696 9130.696 0 0 0 14.498 21.122c2.282 3.317 4.562 6.635 6.843 9.952l2.75 4 38.5 56 1.377 2.002 2.733 3.978c2.37 3.452 4.747 6.898 7.136 10.336l1.492 2.155c.934 1.348 1.87 2.694 2.809 4.039l1.293 1.869 1.12 1.611c1.884 2.936 3.566 5.978 5.29 9.01-19.462.445-38.924.78-58.39.984-9.04.098-18.077.231-27.115.45-7.883.19-15.763.311-23.648.354a455.94 455.94 0 0 0-12.508.22c-25.28.812-25.28.812-31.964-3.832-4.236-4.35-6.87-9.226-9.255-14.764-1.79-3.854-4.254-7.176-6.745-10.6-.902-1.303-1.8-2.609-2.695-3.917l-1.337-1.943c-2.282-3.317-4.562-6.635-6.843-9.952l-2.75-4-60.5-88-1.375-2-2.754-4.007-6.8-9.888c-2.776-4.033-5.55-8.069-8.321-12.105l-1.587-2.31C235.195 336.178 228.04 325.63 221 315c-6.53 6.95-12.88 13.947-18.855 21.387-2.144 2.611-4.369 5.117-6.645 7.613a227.993 227.993 0 0 0-8.938 10.438c-3.86 4.772-7.934 9.293-12.09 13.808-3.22 3.586-6.231 7.321-9.257 11.07-2.88 3.49-5.922 6.814-8.969 10.157-2.308 2.597-4.502 5.261-6.684 7.964-3.86 4.773-7.934 9.294-12.09 13.81-3.22 3.585-6.231 7.32-9.257 11.07-2.88 3.489-5.922 6.813-8.969 10.156-2.308 2.597-4.502 5.261-6.683 7.964-3.86 4.773-7.935 9.294-12.09 13.81-3.22 3.585-6.232 7.32-9.258 11.07-2.88 3.489-5.922 6.813-8.969 10.156-2.308 2.597-4.502 5.261-6.683 7.964-3.85 4.76-7.913 9.271-12.06 13.774-3.398 3.786-6.595 7.71-9.788 11.672C52 511 52 511 51 512c-1.443.093-2.89.117-4.336.114h-2.79l-3.034-.016-3.09-.005c-3.27-.005-6.542-.018-9.813-.03-2.211-.006-4.423-.01-6.634-.014-5.435-.011-10.869-.028-16.303-.049.952-1.28 1.906-2.56 2.86-3.839l1.609-2.159c1.83-2.392 3.793-4.61 5.844-6.815A230.683 230.683 0 0 0 24.5 488.5c3.611-4.464 7.387-8.73 11.254-12.973 2.308-2.597 4.502-5.261 6.684-7.964 3.86-4.773 7.934-9.294 12.09-13.81 3.22-3.585 6.231-7.32 9.257-11.07 2.88-3.489 5.922-6.813 8.969-10.156 2.308-2.597 4.502-5.261 6.683-7.964 3.86-4.773 7.935-9.294 12.09-13.81 3.22-3.585 6.232-7.32 9.258-11.07 2.88-3.489 5.922-6.813 8.969-10.156 2.308-2.597 4.502-5.261 6.683-7.964 3.86-4.773 7.935-9.294 12.09-13.81 3.22-3.585 6.232-7.32 9.258-11.07 2.88-3.489 5.922-6.813 8.969-10.156 2.308-2.597 4.502-5.261 6.684-7.964 3.86-4.773 7.934-9.294 12.09-13.81 3.22-3.585 6.231-7.32 9.257-11.07 2.872-3.48 5.905-6.795 8.945-10.128 3.201-3.603 6.216-7.347 9.227-11.11C195 290 195 290 197.324 287.93L199 286c-.61-4.44-3.346-7.685-5.875-11.25a24597.73 24597.73 0 0 1-3.023-4.328c-.517-.736-1.034-1.47-1.566-2.229-2.368-3.382-4.701-6.788-7.036-10.193l-2.75-4-27.5-40-1.375-2-2.754-4.007-6.8-9.888a10299.69 10299.69 0 0 1-16.48-24.031 9130.696 9130.696 0 0 0-14.498-21.122c-2.282-3.317-4.562-6.635-6.843-9.952l-2.75-4-60.5-88-1.375-2-2.754-4.007-6.8-9.888a10332.51 10332.51 0 0 1-5.403-7.859c-2.14-3.115-4.284-6.226-6.43-9.336l-3.55-5.16-1.7-2.456-1.586-2.31-1.406-2.04C7.01 4.017 6.008 2.054 5 0zm62 34c1.107 1.749 2.215 3.497 3.324 5.244l1.87 2.95c2.354 3.658 4.835 7.209 7.368 10.743l3.137 4.415 1.634 2.297c2.866 4.042 5.703 8.103 8.542 12.163a2348664134.39 2348664134.39 0 0 0 5.343 7.64A465736.817 465736.817 0 0 1 112.25 99.5l5.25 7.5 1.75 2.5 3.504 5.007c2.891 4.13 5.783 8.26 8.676 12.388a9748.954 9748.954 0 0 1 20.604 29.531 8720.98 8720.98 0 0 0 18.248 26.122c2.908 4.15 5.813 8.301 8.718 12.452l3.5 5 7 10 1.75 2.5 3.504 5.007c2.891 4.13 5.783 8.26 8.676 12.388a9748.954 9748.954 0 0 1 20.604 29.531 8720.98 8720.98 0 0 0 18.248 26.122c2.908 4.15 5.813 8.301 8.718 12.452l3.5 5 7 10 1.75 2.5 3.504 5.007c2.891 4.13 5.783 8.26 8.676 12.388a9748.954 9748.954 0 0 1 20.604 29.531 8720.98 8720.98 0 0 0 18.248 26.122c2.908 4.15 5.813 8.301 8.718 12.452l3.5 5 21 30 1.752 2.503 3.48 4.973a10156.085 10156.085 0 0 0 10.936 15.6c1.179 1.68 2.358 3.36 3.539 5.04l1.637 2.333 1.412 2.01C372 471 372 471 372.996 473.258c1.418 2.808 2.634 4.658 5.004 6.743 5.073 1.277 10.06 1.05 15.242.879 1.494-.017 2.987-.03 4.48-.039 3.918-.034 7.833-.122 11.749-.222 4.001-.092 8.003-.133 12.006-.179 7.842-.096 15.682-.25 23.523-.439a7370.117 7370.117 0 0 0-3.356-5.292l-1.887-2.977c-1.977-3.073-4.043-6.028-6.195-8.981-4.51-6.241-8.92-12.549-13.312-18.875a6573.772 6573.772 0 0 0-15.375-22.063l-1.726-2.463-3.431-4.897c-2.908-4.15-5.813-8.301-8.718-12.452l-3.5-5-7-10-1.75-2.5-3.504-5.007c-2.891-4.13-5.783-8.26-8.676-12.388a9748.954 9748.954 0 0 1-20.604-29.531 8720.98 8720.98 0 0 0-18.248-26.122c-2.908-4.15-5.813-8.301-8.718-12.452l-3.5-5-7-10-1.75-2.5-3.504-5.007c-2.891-4.13-5.783-8.26-8.676-12.388a9748.954 9748.954 0 0 1-20.604-29.531 8720.98 8720.98 0 0 0-18.248-26.122c-2.908-4.15-5.813-8.301-8.718-12.452l-3.5-5-21-30-1.75-2.5-3.504-5.007c-2.891-4.13-5.783-8.26-8.676-12.388a9748.954 9748.954 0 0 1-20.604-29.531 8720.98 8720.98 0 0 0-18.248-26.122c-3.486-4.975-6.968-9.952-10.45-14.929-3.014-4.305-6.03-8.609-9.05-12.91l-1.886-2.69c-1.179-1.68-2.358-3.36-3.539-5.038l-1.637-2.334-1.412-2.01C140 43 140 43 139.004 40.742 137.585 37.935 136.37 36.085 134 34c-5.073-1.277-10.06-1.05-15.242-.879-1.494.017-2.987.03-4.48.039-3.918.034-7.833.122-11.749.222-4.001.092-8.003.133-12.006.179-7.842.096-15.682.25-23.523.439z"/></svg>