<svg width="32" height="32" viewBox="0 0 32 32" fill="none" xmlns="http://www.w3.org/2000/svg">
<g clip-path="url(#clip0_12_2)">
<path d="M28.4984 8.0238H2.71672C2.10414 8.0238 1.60754 8.59199 1.60754 9.29288V30.7096C1.60754 31.4105 2.10414 31.9787 2.71672 31.9787H28.4984C29.111 31.9787 29.6075 31.4105 29.6075 30.7096V9.29288C29.6075 8.59199 29.111 8.0238 28.4984 8.0238Z" fill="#4989F5"/>
<path d="M28.1747 7.84375H3.00933C2.22979 7.84375 1.62317 14.7466 1.62317 15.6385L15.4045 31.9786H28.1747C28.9567 31.9761 29.5901 31.2515 29.5922 30.3568V9.46519C29.5899 8.57065 28.9566 7.84619 28.1747 7.84375Z" fill="url(#paint0_linear_12_2)"/>
<path d="M8.00098 12.0354H16.001V0.0218506H9.19887L8.00098 12.0354Z" fill="#3C4BA6"/>
<path d="M24.001 12.0354H16.001V0.0218506H22.8031L24.001 12.0354ZM29.6076 2.29917L29.6175 2.34012C29.6151 2.32567 29.6103 2.31224 29.6076 2.29917Z" fill="#7BABF7"/>
<path d="M29.6175 2.33975L29.6076 2.2988C29.354 0.969954 28.326 0.0223446 27.1372 0.0214844H22.8031L24.0001 12.0354H32.0001L29.6175 2.33975Z" fill="#3F51B5"/>
<path d="M2.39432 2.29919L2.3844 2.34014C2.38681 2.32569 2.39162 2.31227 2.39432 2.29919Z" fill="#7BABF7"/>
<path d="M2.38406 2.33975L2.39399 2.2988C2.64761 0.969954 3.67558 0.0223446 4.86436 0.0214844H9.1988L8 12.0354H0L2.38406 2.33975Z" fill="#7BABF7"/>
<path fill-rule="evenodd" clip-rule="evenodd" d="M8.01453 12.0323C8.01453 14.5585 6.22467 16.6064 4.01679 16.6064C1.80891 16.6064 0.019043 14.5585 0.019043 12.0323H8.01453Z" fill="#709BE0"/>
<path fill-rule="evenodd" clip-rule="evenodd" d="M16.01 12.0323C16.01 14.5585 14.2202 16.6064 12.0123 16.6064C9.80439 16.6064 8.01453 14.5585 8.01453 12.0323H16.01Z" fill="#3C4BA6"/>
<path fill-rule="evenodd" clip-rule="evenodd" d="M24.0055 12.0323C24.0055 14.5585 22.2156 16.6064 20.0078 16.6064C17.7999 16.6064 16.01 14.5585 16.01 12.0323H24.0055Z" fill="#709BE0"/>
<path fill-rule="evenodd" clip-rule="evenodd" d="M32 12.0323C32 14.5585 30.2101 16.6064 28.0023 16.6064C25.7944 16.6064 24.0045 14.5585 24.0045 12.0323H32Z" fill="#3C4BA6"/>
<path d="M28.0024 24.4247C27.9883 24.2069 27.9649 24.008 27.9315 23.754H23.5706C23.5706 24.4519 23.5706 25.2134 23.5682 25.9116H26.0945C26.0408 26.237 25.9315 26.547 25.7728 26.8239C25.6141 27.1008 25.4091 27.3391 25.1697 27.5251C25.1697 27.5251 25.1697 27.5131 25.1679 27.5127C24.8586 27.745 24.5103 27.9006 24.1453 27.9694C23.7794 28.046 23.4042 28.0441 23.0388 27.9639C22.6679 27.876 22.3166 27.7018 22.007 27.4522C21.5499 27.0813 21.1973 26.5658 20.9925 25.9691C20.9769 25.9226 20.9624 25.8758 20.9477 25.8283V25.8231L20.9516 25.8197C20.7529 25.1523 20.7523 24.4284 20.9501 23.7606C21.0894 23.2921 21.3187 22.8652 21.6211 22.5114C22.3305 21.6718 23.3904 21.3561 24.3676 21.6931C24.7423 21.8246 25.0846 22.0552 25.367 22.3662L26.2193 21.391C26.3697 21.2172 26.5258 21.049 26.6704 20.8693C26.2382 20.4081 25.731 20.0487 25.1775 19.8116C24.1702 19.3937 23.0683 19.3826 22.0548 19.7802C22.0195 19.794 21.9844 19.8084 21.9495 19.8233C20.8561 20.2936 19.9566 21.216 19.4286 22.4082C19.2422 22.8302 19.1064 23.2791 19.025 23.7427C18.5422 26.4877 20.0061 29.1897 22.3697 29.916C23.1423 30.1527 23.9636 30.1469 24.7423 29.9446C25.4498 29.7618 26.1039 29.3729 26.6412 28.8155C27.2018 28.2254 27.6036 27.4391 27.8142 26.6039C27.9902 25.8962 28.054 25.1581 28.0024 24.4247Z" fill="white"/>
</g>
<defs>
<linearGradient id="paint0_linear_12_2" x1="1.62317" y1="11214.5" x2="29760.4" y2="11214.5" gradientUnits="userSpaceOnUse">
<stop offset="0.03" stop-color="#4079D8"/>
<stop offset="1" stop-color="#4989F5"/>
</linearGradient>
<clipPath id="clip0_12_2">
<rect width="32" height="32" fill="white"/>
</clipPath>
</defs>
</svg>
