<?xml version="1.0" encoding="UTF-8"?>
<svg xmlns="http://www.w3.org/2000/svg" xmlns:xlink="http://www.w3.org/1999/xlink" width="24px" height="24px" viewBox="0 0 24 24" version="1.1">
<g id="surface1">
<path style=" stroke:none;fill-rule:nonzero;fill:rgb(0%,0%,0%);fill-opacity:1;" d="M 12.210938 24 L 12.203125 24 C 8.125 23.976562 4.988281 22.796875 2.882812 20.492188 C 1.007812 18.4375 0.0390625 15.585938 0.0078125 12.007812 L 0.0078125 11.992188 C 0.0390625 8.414062 1.007812 5.5625 2.882812 3.511719 C 4.988281 1.203125 8.125 0.0234375 12.203125 0 L 12.21875 0 C 15.347656 0.0195312 17.960938 0.726562 19.992188 2.097656 C 21.902344 3.390625 23.25 5.226562 23.988281 7.566406 L 21.664062 8.132812 C 20.40625 4.171875 17.226562 2.152344 12.207031 2.121094 C 8.894531 2.140625 6.386719 3.054688 4.757812 4.835938 C 3.238281 6.503906 2.449219 8.914062 2.417969 12 C 2.449219 15.085938 3.238281 17.496094 4.761719 19.164062 C 6.390625 20.945312 8.898438 21.863281 12.210938 21.878906 C 15.199219 21.863281 17.175781 21.25 18.816406 19.835938 C 20.691406 18.222656 20.660156 16.242188 20.058594 15.039062 C 19.707031 14.328125 19.0625 13.738281 18.195312 13.289062 C 17.976562 14.640625 17.488281 15.734375 16.734375 16.558594 C 15.726562 17.660156 14.296875 18.265625 12.488281 18.351562 C 11.117188 18.414062 9.796875 18.132812 8.773438 17.546875 C 7.5625 16.859375 6.855469 15.808594 6.777344 14.585938 C 6.707031 13.394531 7.242188 12.300781 8.292969 11.503906 C 9.296875 10.742188 10.707031 10.296875 12.375 10.210938 C 13.601562 10.152344 14.753906 10.199219 15.8125 10.355469 C 15.671875 9.613281 15.386719 9.023438 14.960938 8.597656 C 14.375 8.011719 13.46875 7.714844 12.273438 7.707031 C 12.261719 7.707031 12.25 7.707031 12.242188 7.707031 C 11.277344 7.707031 9.972656 7.9375 9.140625 9.027344 L 7.140625 7.847656 C 8.253906 6.394531 10.066406 5.59375 12.242188 5.59375 C 12.257812 5.59375 12.273438 5.59375 12.289062 5.59375 C 15.929688 5.609375 18.09375 7.566406 18.3125 10.980469 C 18.433594 11.027344 18.558594 11.074219 18.679688 11.121094 C 20.375 11.824219 21.617188 12.882812 22.269531 14.191406 C 23.175781 16.011719 23.261719 18.980469 20.507812 21.351562 C 18.398438 23.160156 15.84375 23.976562 12.21875 24 Z M 13.351562 12.308594 C 13.078125 12.308594 12.796875 12.316406 12.511719 12.332031 C 10.421875 12.433594 9.117188 13.277344 9.191406 14.472656 C 9.265625 15.730469 10.84375 16.3125 12.359375 16.242188 C 13.753906 16.175781 15.570312 15.699219 15.875 12.53125 C 15.105469 12.382812 14.261719 12.308594 13.351562 12.308594 Z M 13.351562 12.308594 "/>
</g>
</svg>
