<svg xmlns="http://www.w3.org/2000/svg" viewBox="0 0 568 501" width="24px" height="24px"><path fill="#0085FF" d="M123.121 33.6637C188.241 82.5526 258.281 181.681 284 234.873C309.719 181.681 379.759 82.5526 444.879 33.6637C491.866 -1.61183 568 -28.9064 568 57.9464C568 75.2916 558.055 203.659 552.222 224.501C531.947 296.954 458.067 315.434 392.347 304.249C507.222 323.8 536.444 388.56 473.333 453.32C353.473 576.312 301.061 422.461 287.631 383.039C285.169 375.812 284.017 372.431 283.999 375.306C283.981 372.431 282.829 375.812 280.367 383.039C266.938 422.461 214.525 576.312 94.6651 453.32C31.5538 388.56 60.7752 323.8 175.65 304.249C109.93 315.434 36.0503 296.954 15.7752 224.501C9.94202 203.659 0 75.2916 0 57.9464C0 -28.9064 76.1335 -1.61183 123.121 33.6637Z"/></svg>
