<svg width="227" height="227" viewBox="0 0 227 227" fill="none" xmlns="http://www.w3.org/2000/svg">
<mask id="mask0_1997_3937" style="mask-type:luminance" maskUnits="userSpaceOnUse" x="0" y="0" width="227" height="227">
<path d="M227 0H0V227H227V0Z" fill="white"/>
</mask>
<g mask="url(#mask0_1997_3937)">
<path d="M113.5 203.543C163.644 203.543 204.3 162.888 204.3 112.743C204.3 62.5991 163.644 21.9434 113.5 21.9434C63.3557 21.9434 22.7 62.5991 22.7 112.743C22.7 162.888 63.3557 203.543 113.5 203.543Z" fill="#F3F2FF"/>
<path d="M149.472 48.0938H79.4499C72.7636 48.0938 67.3433 53.5141 67.3433 60.2004V153.293C67.3433 159.979 72.7636 165.4 79.4499 165.4H149.472C156.158 165.4 161.579 159.979 161.579 153.293V60.2004C161.579 53.5141 156.158 48.0938 149.472 48.0938Z" fill="url(#paint0_linear_1997_3937)"/>
<path d="M109.792 63.2271H79.3742C77.3265 63.2271 75.6665 64.887 75.6665 66.9347C75.6665 68.9824 77.3265 70.6424 79.3742 70.6424H109.792C111.84 70.6424 113.5 68.9824 113.5 66.9347C113.5 64.887 111.84 63.2271 109.792 63.2271Z" fill="#DBD9F8"/>
<path d="M147.626 84.2625H79.3742C77.3265 84.2625 75.6665 85.9224 75.6665 87.9701C75.6665 90.0178 77.3265 91.6778 79.3742 91.6778H147.626C149.673 91.6778 151.333 90.0178 151.333 87.9701C151.333 85.9224 149.673 84.2625 147.626 84.2625Z" fill="#DBD9F8"/>
<path d="M147.626 105.298H79.3742C77.3265 105.298 75.6665 106.958 75.6665 109.006C75.6665 111.053 77.3265 112.713 79.3742 112.713H147.626C149.673 112.713 151.333 111.053 151.333 109.006C151.333 106.958 149.673 105.298 147.626 105.298Z" fill="#DBD9F8"/>
<path d="M147.626 126.333H79.3742C77.3265 126.333 75.6665 127.993 75.6665 130.041C75.6665 132.088 77.3265 133.748 79.3742 133.748H147.626C149.673 133.748 151.333 132.088 151.333 130.041C151.333 127.993 149.673 126.333 147.626 126.333Z" fill="#DBD9F8"/>
<path d="M79.3742 147.368H147.626C149.676 147.368 151.333 149.026 151.333 151.076C151.333 153.127 149.676 154.784 147.626 154.784H79.3742C77.3236 154.784 75.6665 153.127 75.6665 151.076C75.6665 149.026 77.3236 147.368 79.3742 147.368Z" fill="#DBD9F8"/>
<path d="M222.812 35H173.188C170.875 35 169 36.8344 169 39.0909V61.9015C169 64.1656 170.875 66 173.188 66H222.812C225.125 66 227 64.1656 227 61.9015V39.0909C227 36.8267 225.125 35 222.812 35Z" fill="white"/>
<path d="M182.086 55.2367C184.591 55.2367 186.626 53.2013 186.626 50.6967C186.626 48.1922 184.591 46.1567 182.086 46.1567C179.582 46.1567 177.546 48.1922 177.546 50.6967C177.546 53.2013 179.582 55.2367 182.086 55.2367Z" fill="#6C62FF"/>
<path d="M197.22 46.1567H212.353C214.858 46.1567 216.893 48.1922 216.893 50.6967C216.893 53.2013 214.858 55.2367 212.353 55.2367H197.22C194.715 55.2367 192.68 53.2013 192.68 50.6967C192.68 48.1922 194.715 46.1567 197.22 46.1567Z" fill="#DBD9F8"/>
<path fill-rule="evenodd" clip-rule="evenodd" d="M140.066 170.674C149.812 170.674 158.869 167.723 166.398 162.676L197.195 192.072L208.363 179.118L178.649 150.751C184.135 143.025 187.366 133.582 187.366 123.39C187.366 97.2696 166.194 76.098 140.074 76.098C113.954 76.098 92.7822 97.2696 92.7822 123.39C92.7822 149.51 113.954 170.681 140.074 170.681L140.066 170.674ZM180.404 123.382C180.404 145.492 162.479 163.417 140.369 163.417C118.259 163.417 100.334 145.492 100.334 123.382C100.334 101.272 118.259 83.3469 140.369 83.3469C162.479 83.3469 180.404 101.272 180.404 123.382Z" fill="#CCC9FF"/>
<path d="M147.489 123.337L157.47 113.394C158.408 112.41 158.915 111.101 158.9 109.747C158.885 108.392 158.332 107.106 157.371 106.145C156.41 105.192 155.109 104.639 153.747 104.624C152.385 104.609 151.068 105.116 150.077 106.047L140.074 115.989L130.094 106.047C129.617 105.54 129.034 105.139 128.399 104.859C127.755 104.579 127.067 104.428 126.371 104.42C125.675 104.412 124.978 104.541 124.328 104.798C123.677 105.063 123.094 105.449 122.595 105.941C122.103 106.433 121.71 107.015 121.445 107.659C121.18 108.302 121.051 108.99 121.059 109.686C121.066 110.383 121.218 111.064 121.498 111.707C121.778 112.342 122.186 112.917 122.693 113.394L132.689 123.337L122.693 133.279C122.186 133.756 121.778 134.331 121.498 134.967C121.218 135.602 121.066 136.291 121.059 136.987C121.051 137.683 121.18 138.372 121.445 139.015C121.71 139.658 122.096 140.241 122.595 140.732C123.087 141.224 123.677 141.61 124.328 141.875C124.978 142.14 125.667 142.268 126.371 142.253C127.074 142.238 127.763 142.094 128.399 141.814C129.042 141.534 129.617 141.133 130.094 140.626L140.097 130.684L150.1 140.626C151.099 141.497 152.392 141.966 153.724 141.92C155.056 141.875 156.32 141.33 157.258 140.399C158.196 139.461 158.741 138.205 158.779 136.881C158.817 135.557 158.347 134.27 157.462 133.279L147.482 123.337H147.489Z" fill="#6C62FF"/>
<path d="M197.188 192.072L208.356 179.111L210.036 180.715C211.67 182.273 212.646 184.445 212.752 186.768C212.858 189.083 212.086 191.353 210.611 193.071C209.128 194.789 207.062 195.818 204.86 195.931C202.658 196.045 200.502 195.235 198.875 193.676L197.195 192.072H197.188Z" fill="#BDB9FF"/>
<path fill-rule="evenodd" clip-rule="evenodd" d="M42.6078 68.9853C42.5927 67.9033 42.4565 66.8212 42.1917 65.7241C41.2383 61.8802 37.0085 59.4135 32.4988 58.8308C27.989 58.2482 23.3053 59.5724 21.4968 62.9168C20.4602 64.8312 20.324 66.4807 20.7402 67.8654C21.1639 69.2501 22.1551 70.3927 23.5096 71.2856C27.2853 73.775 33.891 74.282 36.9101 73.2378C38.3024 72.7535 39.6644 72.1784 40.9961 71.5126C40.2395 75.8634 37.4095 79.9797 33.6413 83.6873C25.4391 91.7534 12.7195 97.8748 5.78844 100.13C5.41767 100.251 5.2058 100.659 5.32687 101.053C5.44037 101.439 5.8414 101.658 6.21217 101.537C13.2794 99.2444 26.2487 92.9868 34.6099 84.7618C38.9304 80.5093 42.0101 75.7272 42.5322 70.7029C52.2932 65.2549 60.3138 55.3653 67.1692 47.0495C67.4265 46.7469 67.3887 46.2777 67.0936 46.0129C66.7985 45.7481 66.352 45.7783 66.0948 46.0886C59.5193 54.0714 51.8846 63.56 42.6078 68.9853ZM41.1853 69.7722C41.2383 68.5616 41.1248 67.3282 40.8145 66.0873C39.9898 62.7579 36.2216 60.7906 32.3172 60.2912C29.9261 59.981 27.4669 60.2382 25.5374 61.1387C24.3268 61.7062 23.328 62.5234 22.7226 63.6432C21.9357 65.1036 21.7617 66.3597 22.087 67.419C22.4124 68.4859 23.2145 69.3485 24.2662 70.0371C27.7091 72.3071 33.7246 72.7838 36.4713 71.8379C38.0905 71.278 39.6644 70.5819 41.1929 69.7722H41.1853Z" fill="#6C62FF"/>
<path d="M215.65 143.767C218.157 143.767 220.19 141.734 220.19 139.227C220.19 136.719 218.157 134.687 215.65 134.687C213.142 134.687 211.11 136.719 211.11 139.227C211.11 141.734 213.142 143.767 215.65 143.767Z" fill="#DBD9F8"/>
<path fill-rule="evenodd" clip-rule="evenodd" d="M43.174 173.545C43.9837 173.242 44.8387 172.841 45.497 172.251C46.2764 171.555 46.5942 170.662 46.806 169.724C47.0784 168.513 47.1919 167.227 47.5249 166.016C47.6459 165.562 47.8805 165.396 47.9864 165.32C48.2437 165.131 48.501 165.078 48.7431 165.101C49.0306 165.123 49.4317 165.237 49.6889 165.751C49.7268 165.827 49.7722 165.933 49.81 166.092C49.8327 166.205 49.8478 166.553 49.8781 166.697C49.9386 167.053 49.9916 167.408 50.0446 167.764C50.211 168.952 50.3018 169.958 50.8239 171.048C51.5276 172.531 52.2313 173.432 53.1923 173.833C54.1154 174.218 55.2277 174.15 56.6427 173.84C56.7789 173.802 56.9075 173.78 57.0437 173.749C57.6642 173.636 58.262 174.067 58.383 174.718C58.5041 175.369 58.1106 176.004 57.4902 176.148C57.3615 176.178 57.2329 176.208 57.1118 176.231C55.1975 176.731 52.988 178.509 51.7017 180.06C51.3082 180.537 50.7256 181.883 50.1354 182.739C49.6965 183.367 49.2047 183.783 48.7961 183.934C48.5161 184.032 48.2891 184.017 48.0924 183.964C47.8124 183.889 47.5778 183.73 47.4038 183.48C47.3054 183.344 47.2146 183.155 47.1768 182.92C47.1541 182.807 47.1541 182.519 47.1541 182.383C47.033 181.944 46.8893 181.52 46.7758 181.081C46.5185 180.03 46.0191 179.364 45.4213 178.486C44.8614 177.661 44.2636 177.147 43.3783 176.731C43.2648 176.7 42.3417 176.466 42.0163 176.33C41.5396 176.133 41.3126 175.792 41.2294 175.611C41.0856 175.308 41.0781 175.036 41.1008 174.816C41.1386 174.483 41.2824 174.203 41.5321 173.976C41.6834 173.833 41.918 173.696 42.2282 173.628C42.4703 173.575 43.0984 173.545 43.1892 173.545H43.174ZM48.5993 171.835C48.6447 171.933 48.6901 172.039 48.7355 172.138C49.7646 174.309 50.9223 175.52 52.3221 176.103L52.3675 176.125C51.4293 176.859 50.5818 177.676 49.9311 178.463C49.6662 178.789 49.3106 179.462 48.9247 180.151C48.5766 178.963 48.0091 178.123 47.2979 177.071C46.7531 176.269 46.178 175.664 45.4743 175.172C46.0191 174.877 46.5412 174.529 46.9952 174.128C47.7519 173.454 48.2513 172.682 48.5918 171.835H48.5993Z" fill="#DBD9F8"/>
</g>
<defs>
<linearGradient id="paint0_linear_1997_3937" x1="114.461" y1="48.0862" x2="114.461" y2="165.392" gradientUnits="userSpaceOnUse">
<stop stop-color="white"/>
<stop offset="0.72" stop-color="#FAFAFA"/>
</linearGradient>
</defs>
</svg>
