<svg width="283" height="132" viewBox="0 0 283 132" fill="none" xmlns="http://www.w3.org/2000/svg">
<rect width="283" height="132" rx="4" fill="white"/>
<g clip-path="url(#clip0_2160_612)">
<path d="M48 24.001C34.7466 24.001 24 34.7454 24 47.9999C24 61.2544 34.7455 71.9989 48 71.9989C61.2556 71.9989 72 61.2544 72 47.9999C72 34.7454 61.2556 24.001 48 24.001ZM48 31.1769C52.3855 31.1769 55.9392 34.7317 55.9392 39.1151C55.9392 43.4995 52.3855 47.0532 48 47.0532C43.6166 47.0532 40.0629 43.4995 40.0629 39.1151C40.0629 34.7317 43.6166 31.1769 48 31.1769ZM47.9947 65.7242C43.6208 65.7242 39.6149 64.1313 36.525 61.4948C35.7723 60.8528 35.338 59.9114 35.338 58.9236C35.338 54.478 38.936 50.9201 43.3826 50.9201H52.6195C57.0672 50.9201 60.6515 54.478 60.6515 58.9236C60.6515 59.9124 60.2193 60.8517 59.4655 61.4937C56.3767 64.1313 52.3697 65.7242 47.9947 65.7242Z" fill="#D7DBDF"/>
</g>
<rect x="88" y="33" width="121" height="10" rx="5" fill="#D7DBDF"/>
<rect x="88" y="57" width="65" height="6" rx="3" fill="#D7DBDF"/>
<rect x="158" y="57" width="70" height="6" rx="3" fill="#D7DBDF"/>
<rect x="88" y="88" width="39" height="20" rx="10" fill="#D7DBDF"/>
<rect x="89" y="89" width="18" height="18" rx="9" fill="white"/>
<path d="M139.776 100.899C139.648 100.899 139.521 100.851 139.423 100.753C139.228 100.558 139.228 100.241 139.423 100.046L147.236 92.2323C147.431 92.037 147.748 92.037 147.943 92.2323C148.139 92.4275 148.139 92.744 147.943 92.9393L140.13 100.753C140.032 100.85 139.904 100.899 139.776 100.899Z" fill="#A7A7B6"/>
<path d="M139.004 104.5C138.97 104.5 138.934 104.496 138.899 104.489C138.629 104.431 138.457 104.165 138.515 103.895L139.288 100.294C139.346 100.024 139.613 99.8528 139.881 99.9103C140.151 99.9683 140.323 100.234 140.265 100.504L139.493 104.105C139.443 104.34 139.235 104.5 139.004 104.5Z" fill="#A7A7B6"/>
<path d="M142.604 103.727C142.476 103.727 142.349 103.679 142.251 103.581C142.056 103.386 142.056 103.069 142.251 102.874L150.064 95.0607C150.259 94.8655 150.576 94.8655 150.771 95.0607C150.967 95.256 150.967 95.5725 150.771 95.7677L142.958 103.581C142.86 103.679 142.732 103.727 142.604 103.727Z" fill="#A7A7B6"/>
<path d="M139.004 104.5C138.773 104.5 138.566 104.34 138.515 104.105C138.457 103.835 138.629 103.569 138.899 103.511L142.5 102.739C142.77 102.681 143.036 102.853 143.094 103.123C143.151 103.393 142.98 103.658 142.71 103.716L139.109 104.489C139.074 104.497 139.038 104.5 139.004 104.5Z" fill="#A7A7B6"/>
<path d="M149.004 97.3283C148.876 97.3283 148.748 97.2796 148.65 97.1818L145.822 94.3536C145.627 94.1583 145.627 93.8418 145.822 93.6466C146.017 93.4513 146.334 93.4513 146.529 93.6466L149.357 96.4748C149.553 96.6701 149.553 96.9866 149.357 97.1818C149.26 97.2796 149.132 97.3283 149.004 97.3283Z" fill="#A7A7B6"/>
<path d="M150.418 95.9142C150.29 95.9142 150.162 95.8654 150.064 95.7677C149.869 95.5724 149.869 95.2559 150.064 95.0604C150.342 94.7822 150.495 94.4054 150.495 93.9999C150.495 93.5944 150.342 93.2177 150.064 92.9394C149.785 92.6609 149.409 92.5077 149.003 92.5077C148.598 92.5077 148.221 92.6609 147.943 92.9394C147.748 93.1347 147.431 93.1349 147.235 92.9394C147.04 92.7442 147.04 92.4277 147.235 92.2322C147.702 91.7649 148.33 91.5077 149.003 91.5077C149.676 91.5077 150.304 91.7649 150.771 92.2322C151.238 92.6992 151.495 93.3269 151.495 93.9999C151.495 94.6729 151.238 95.3007 150.771 95.7677C150.674 95.8652 150.546 95.9142 150.418 95.9142Z" fill="#A7A7B6"/>
<rect x="157" y="95" width="20" height="6" rx="3" fill="#D7DBDF"/>
<path fill-rule="evenodd" clip-rule="evenodd" d="M200.167 94C200.167 93.724 199.943 93.5 199.667 93.5H190.334C190.058 93.5 189.834 93.724 189.834 94V103C189.834 103.575 190.062 104.126 190.469 104.532C190.875 104.939 191.426 105.167 192.001 105.167H198.001C198.575 105.167 199.127 104.939 199.533 104.532C199.939 104.126 200.167 103.575 200.167 103C200.167 100 200.167 94 200.167 94ZM199.167 94.5V103C199.167 103.309 199.045 103.606 198.825 103.825C198.607 104.044 198.31 104.167 198.001 104.167C196.306 104.167 193.695 104.167 192.001 104.167C191.691 104.167 191.395 104.044 191.176 103.825C190.957 103.606 190.834 103.309 190.834 103V94.5H199.167Z" fill="#A7A7B6"/>
<path fill-rule="evenodd" clip-rule="evenodd" d="M198 94.5C198.276 94.5 198.5 94.276 198.5 94C198.5 94 198.5 93.3334 198.5 92.6667C198.5 92.1807 198.307 91.714 197.963 91.37C197.619 91.0267 197.153 90.8334 196.667 90.8334C195.675 90.8334 194.325 90.8334 193.333 90.8334C192.847 90.8334 192.381 91.0267 192.037 91.37C191.693 91.714 191.5 92.1807 191.5 92.6667V94C191.5 94.276 191.724 94.5 192 94.5H198ZM197.5 93.5H192.5V92.6667C192.5 92.4454 192.588 92.234 192.744 92.0774C192.901 91.9214 193.112 91.8334 193.333 91.8334H196.667C196.888 91.8334 197.099 91.9214 197.256 92.0774C197.412 92.234 197.5 92.4454 197.5 92.6667V93.5Z" fill="#A7A7B6"/>
<path fill-rule="evenodd" clip-rule="evenodd" d="M200.334 93.5H189.667C189.391 93.5 189.167 93.724 189.167 94C189.167 94.276 189.391 94.5 189.667 94.5H200.334C200.61 94.5 200.834 94.276 200.834 94C200.834 93.724 200.61 93.5 200.334 93.5Z" fill="#A7A7B6"/>
<path fill-rule="evenodd" clip-rule="evenodd" d="M192.834 97V101.667C192.834 101.943 193.058 102.167 193.334 102.167C193.61 102.167 193.834 101.943 193.834 101.667V97C193.834 96.724 193.61 96.5 193.334 96.5C193.058 96.5 192.834 96.724 192.834 97Z" fill="#A7A7B6"/>
<path fill-rule="evenodd" clip-rule="evenodd" d="M196.167 97V101.667C196.167 101.943 196.391 102.167 196.667 102.167C196.943 102.167 197.167 101.943 197.167 101.667V97C197.167 96.724 196.943 96.5 196.667 96.5C196.391 96.5 196.167 96.724 196.167 97Z" fill="#A7A7B6"/>
<rect x="207" y="95" width="20" height="6" rx="3" fill="#D7DBDF"/>
<rect x="229.5" y="10.5" width="35" height="15" rx="7.5" fill="white"/>
<rect x="237" y="16" width="20" height="4" rx="2" fill="#D7DBDF"/>
<rect x="229.5" y="10.5" width="35" height="15" rx="7.5" stroke="#D7DBDF"/>
<defs>
<clipPath id="clip0_2160_612">
<rect width="48" height="48" fill="white" transform="translate(24 24)"/>
</clipPath>
</defs>
</svg>
