<svg width="32" height="32" viewBox="0 0 32 32" fill="none" xmlns="http://www.w3.org/2000/svg">
<g clip-path="url(#clip0_1986_2016)">
<path d="M32 16C32 23.9863 26.1488 30.6056 18.5 31.8056V20.625H22.2281L22.9375 16H18.5V12.9988C18.5 11.7331 19.12 10.5 21.1075 10.5H23.125V6.5625C23.125 6.5625 21.2938 6.25 19.5431 6.25C15.8888 6.25 13.5 8.465 13.5 12.475V16H9.4375V20.625H13.5V31.8056C5.85125 30.6056 0 23.9863 0 16C0 7.16375 7.16375 0 16 0C24.8363 0 32 7.16375 32 16Z" fill="#1877F2"/>
<path d="M22.2281 20.625L22.9375 16H18.5V12.9987C18.5 11.7334 19.1199 10.5 21.1074 10.5H23.125V6.5625C23.125 6.5625 21.294 6.25 19.5434 6.25C15.8887 6.25 13.5 8.465 13.5 12.475V16H9.4375V20.625H13.5V31.8056C14.3146 31.9334 15.1495 32 16 32C16.8505 32 17.6854 31.9334 18.5 31.8056V20.625H22.2281Z" fill="white"/>
</g>
<defs>
<clipPath id="clip0_1986_2016">
<rect width="32" height="32" fill="white"/>
</clipPath>
</defs>
</svg>
