<svg width="73" height="41" viewBox="0 0 73 41" fill="none" xmlns="http://www.w3.org/2000/svg">
<g filter="url(#filter0_d_4818_6329)">
<rect x="7" y="10.5137" width="57" height="20" rx="10" transform="rotate(-7.57541 7 10.5137)" fill="#FF9437" shape-rendering="crispEdges"/>
<rect x="7" y="10.5137" width="57" height="20" rx="10" transform="rotate(-7.57541 7 10.5137)" stroke="#FF8114" shape-rendering="crispEdges"/>
<g clip-path="url(#clip0_4818_6329)">
<path d="M17.5493 21.0815C17.1277 19.6417 16.7061 18.202 16.2845 16.7623C16.191 16.4431 16.5322 16.1716 16.8222 16.3343C17.597 16.769 18.3717 17.2037 19.1465 17.6383C19.4016 17.7815 19.7245 17.6809 19.8532 17.4183L21.2617 14.545C21.4106 14.2414 21.8203 14.1869 22.0434 14.441L24.1539 16.8463C24.3468 17.0662 24.6848 17.0788 24.8936 16.874C25.5278 16.252 26.162 15.6299 26.7962 15.0079C27.0336 14.775 27.4339 14.9479 27.4271 15.2804C27.3965 16.7803 27.3658 18.2801 27.3352 19.78L17.5493 21.0815Z" fill="white"/>
<path d="M27.1508 22.2938L18.3853 23.4596C18.1035 23.4971 17.8447 23.299 17.8073 23.0172L17.6582 21.8965L27.4441 20.595L27.5932 21.7158C27.6306 21.9976 27.4325 22.2564 27.1508 22.2938Z" fill="white"/>
</g>
<path d="M33.6444 21.5969L32.4939 12.9458L35.7381 12.5144C36.4027 12.426 36.9768 12.4757 37.4603 12.6636C37.9466 12.8511 38.3341 13.1464 38.6227 13.5494C38.9138 13.9491 39.0958 14.4236 39.1688 14.9727C39.2426 15.5275 39.1913 16.0359 39.0148 16.4978C38.8384 16.9598 38.5386 17.345 38.1153 17.6535C37.6917 17.9592 37.1462 18.1564 36.4787 18.2451L34.3286 18.5311L34.1573 17.2427L36.0962 16.9849C36.4848 16.9332 36.794 16.8233 37.0239 16.6551C37.2537 16.487 37.4121 16.2768 37.4989 16.0245C37.5885 15.7719 37.6129 15.492 37.5721 15.1851C37.5313 14.8781 37.4348 14.6158 37.2826 14.3982C37.1332 14.1802 36.9246 14.0231 36.6567 13.9269C36.3913 13.8275 36.0629 13.8038 35.6715 13.8559L34.2352 14.0469L35.2116 21.3885L33.6444 21.5969ZM41.2997 20.5788L40.1492 11.9277L43.3933 11.4963C44.0579 11.4079 44.6309 11.4492 45.1122 11.6202C45.5963 11.7908 45.9815 12.0692 46.2679 12.4552C46.5567 12.8381 46.7378 13.3055 46.8112 13.8575C46.8849 14.4123 46.8307 14.9096 46.6485 15.3494C46.4686 15.786 46.1654 16.1458 45.7388 16.429C45.3118 16.7093 44.766 16.8937 44.1014 16.9821L41.7908 17.2893L41.6178 15.9883L43.7172 15.7091C44.1058 15.6574 44.4169 15.5616 44.6505 15.4216C44.8837 15.2788 45.0456 15.0954 45.1361 14.8713C45.2292 14.6439 45.2552 14.3768 45.2144 14.0699C45.1736 13.7629 45.0782 13.509 44.9283 13.3083C44.778 13.1048 44.5714 12.9631 44.3086 12.8835C44.0455 12.801 43.7182 12.7857 43.3267 12.8378L41.8905 13.0288L42.8669 20.3704L41.2997 20.5788ZM45.2475 16.0644L47.9105 19.6996L46.1617 19.9322L43.5368 16.2919L45.2475 16.0644ZM56.1912 14.1963C56.3152 15.1284 56.2468 15.95 55.986 16.6611C55.7276 17.3689 55.3219 17.9388 54.7689 18.3705C54.2187 18.802 53.5648 19.068 52.8073 19.1688C52.0498 19.2695 51.3477 19.1838 50.701 18.9115C50.0568 18.6361 49.5161 18.1907 49.0789 17.5754C48.6441 16.9568 48.3649 16.1829 48.2414 15.2536C48.1174 14.3214 48.1846 13.5015 48.443 12.7936C48.7038 12.0826 49.1093 11.5113 49.6595 11.0799C50.2125 10.6481 50.8678 10.3819 51.6253 10.2811C52.3828 10.1804 53.0835 10.2663 53.7274 10.5389C54.374 10.8112 54.9147 11.2566 55.3495 11.8751C55.7867 12.4904 56.0673 13.2642 56.1912 14.1963ZM54.6156 14.4059C54.5284 13.7497 54.352 13.21 54.0865 12.7868C53.8234 12.3603 53.4963 12.0556 53.1051 11.8727C52.7136 11.6869 52.2827 11.6252 51.8124 11.6878C51.3421 11.7503 50.9423 11.9224 50.6129 12.2041C50.2831 12.483 50.0456 12.8628 49.9003 13.3435C49.7575 13.821 49.7297 14.3879 49.817 15.044C49.9042 15.7002 50.0794 16.2415 50.3424 16.6679C50.6079 17.0912 50.9365 17.3957 51.328 17.5815C51.7192 17.7645 52.1499 17.8247 52.6202 17.7621C53.0905 17.6996 53.4905 17.5289 53.8203 17.25C54.1497 16.9683 54.3858 16.5887 54.5286 16.1112C54.6739 15.6305 54.7029 15.062 54.6156 14.4059Z" fill="white"/>
</g>
<defs>
<filter id="filter0_d_4818_6329" x="0" y="0" width="73.1387" height="41.3398" filterUnits="userSpaceOnUse" color-interpolation-filters="sRGB">
<feFlood flood-opacity="0" result="BackgroundImageFix"/>
<feColorMatrix in="SourceAlpha" type="matrix" values="0 0 0 0 0 0 0 0 0 0 0 0 0 0 0 0 0 0 127 0" result="hardAlpha"/>
<feOffset dy="4"/>
<feGaussianBlur stdDeviation="3.5"/>
<feComposite in2="hardAlpha" operator="out"/>
<feColorMatrix type="matrix" values="0 0 0 0 0 0 0 0 0 0 0 0 0 0 0 0 0 0 0.08 0"/>
<feBlend mode="normal" in2="BackgroundImageFix" result="effect1_dropShadow_4818_6329"/>
<feBlend mode="normal" in="SourceGraphic" in2="effect1_dropShadow_4818_6329" result="shape"/>
</filter>
<clipPath id="clip0_4818_6329">
<rect width="12" height="12" fill="white" transform="translate(15.457 13.4238) rotate(-7.57541)"/>
</clipPath>
</defs>
</svg>
