<svg width="32" height="32" viewBox="0 0 32 32" fill="none" xmlns="http://www.w3.org/2000/svg">
<g clip-path="url(#clip0_109_27)">
<path d="M24.5 0H7.5C3.35786 0 0 3.35786 0 7.5V24.5C0 28.6421 3.35786 32 7.5 32H24.5C28.6421 32 32 28.6421 32 24.5V7.5C32 3.35786 28.6421 0 24.5 0Z" fill="url(#paint0_radial_109_27)"/>
<path d="M24.5 0H7.5C3.35786 0 0 3.35786 0 7.5V24.5C0 28.6421 3.35786 32 7.5 32H24.5C28.6421 32 32 28.6421 32 24.5V7.5C32 3.35786 28.6421 0 24.5 0Z" fill="url(#paint1_radial_109_27)"/>
<path d="M16.0008 6C13.285 6 12.9441 6.0119 11.8775 6.0604C10.813 6.1092 10.0863 6.2777 9.45047 6.52499C8.79267 6.78039 8.23478 7.12209 7.67898 7.67808C7.12269 8.23398 6.78099 8.79187 6.52479 9.44937C6.2768 10.0854 6.1081 10.8124 6.0602 11.8764C6.0125 12.9431 6 13.2841 6 16C6 18.7159 6.012 19.0557 6.0604 20.1223C6.1094 21.1868 6.2779 21.9135 6.52499 22.5493C6.78059 23.2071 7.12229 23.765 7.67828 24.3208C8.23398 24.8771 8.79187 25.2196 9.44917 25.475C10.0855 25.7223 10.8123 25.8908 11.8766 25.9396C12.9433 25.9881 13.2839 26 15.9996 26C18.7157 26 19.0555 25.9881 20.1221 25.9396C21.1866 25.8908 21.9141 25.7223 22.5504 25.475C23.2079 25.2196 23.765 24.8771 24.3206 24.3208C24.8769 23.765 25.2185 23.2071 25.4748 22.5496C25.7206 21.9135 25.8894 21.1866 25.9394 20.1225C25.9873 19.0559 25.9998 18.7159 25.9998 16C25.9998 13.2841 25.9873 12.9433 25.9394 11.8766C25.8894 10.8121 25.7206 10.0855 25.4748 9.44967C25.2185 8.79187 24.8769 8.23398 24.3206 7.67808C23.7644 7.12189 23.2081 6.78019 22.5498 6.52509C21.9123 6.2777 21.1852 6.1091 20.1207 6.0604C19.054 6.0119 18.7144 6 15.9977 6H16.0008ZM15.1037 7.80208C15.37 7.80168 15.6671 7.80208 16.0008 7.80208C18.6709 7.80208 18.9873 7.81168 20.0417 7.85958C21.0166 7.90418 21.5458 8.06708 21.8983 8.20398C22.365 8.38518 22.6977 8.60187 23.0475 8.95197C23.3975 9.30197 23.6141 9.63526 23.7958 10.102C23.9327 10.454 24.0958 10.9832 24.1402 11.9581C24.1881 13.0123 24.1985 13.3289 24.1985 15.9977C24.1985 18.6665 24.1881 18.9832 24.1402 20.0373C24.0956 21.0122 23.9327 21.5414 23.7958 21.8935C23.6146 22.3602 23.3975 22.6925 23.0475 23.0423C22.6975 23.3923 22.3652 23.6089 21.8983 23.7902C21.5462 23.9277 21.0166 24.0902 20.0417 24.1348C18.9875 24.1827 18.6709 24.1931 16.0008 24.1931C13.3306 24.1931 13.0141 24.1827 11.96 24.1348C10.985 24.0898 10.4559 23.9269 10.1031 23.79C9.63646 23.6087 9.30307 23.3921 8.95307 23.0421C8.60307 22.6921 8.38648 22.3596 8.20478 21.8927C8.06788 21.5406 7.90478 21.0115 7.86038 20.0365C7.81248 18.9823 7.80288 18.6657 7.80288 15.9952C7.80288 13.3248 7.81248 13.0098 7.86038 11.9556C7.90498 10.9807 8.06788 10.4515 8.20478 10.099C8.38608 9.63226 8.60307 9.29897 8.95317 8.94897C9.30317 8.59897 9.63646 8.38228 10.1032 8.20068C10.4557 8.06318 10.985 7.90068 11.96 7.85588C12.8825 7.81418 13.24 7.80168 15.1037 7.79958V7.80208ZM21.3387 9.46247C20.6763 9.46247 20.1388 9.99946 20.1388 10.6621C20.1388 11.3245 20.6763 11.862 21.3387 11.862C22.0012 11.862 22.5387 11.3245 22.5387 10.6621C22.5387 9.99956 22.0012 9.46247 21.3387 9.46247ZM16.0008 10.8646C13.1648 10.8646 10.8655 13.1639 10.8655 16C10.8655 18.8361 13.1648 21.1343 16.0008 21.1343C18.8369 21.1343 21.1354 18.8361 21.1354 16C21.1354 13.164 18.8369 10.8646 16.0008 10.8646ZM16.0008 12.6666C17.8417 12.6666 19.3342 14.1589 19.3342 16C19.3342 17.8409 17.8417 19.3334 16.0008 19.3334C14.1598 19.3334 12.6675 17.8409 12.6675 16C12.6675 14.1589 14.1598 12.6666 16.0008 12.6666Z" fill="white"/>
</g>
<defs>
<radialGradient id="paint0_radial_109_27" cx="0" cy="0" r="1" gradientUnits="userSpaceOnUse" gradientTransform="translate(8.5 34.4646) rotate(-90) scale(31.7144 29.4969)">
<stop stop-color="#FFDD55"/>
<stop offset="0.1" stop-color="#FFDD55"/>
<stop offset="0.5" stop-color="#FF543E"/>
<stop offset="1" stop-color="#C837AB"/>
</radialGradient>
<radialGradient id="paint1_radial_109_27" cx="0" cy="0" r="1" gradientUnits="userSpaceOnUse" gradientTransform="translate(-5.36012 2.30512) rotate(78.681) scale(14.1765 58.436)">
<stop stop-color="#3771C8"/>
<stop offset="0.128" stop-color="#3771C8"/>
<stop offset="1" stop-color="#6600FF" stop-opacity="0"/>
</radialGradient>
<clipPath id="clip0_109_27">
<rect width="32" height="32" rx="16" fill="white"/>
</clipPath>
</defs>
</svg>
