<svg width="32" height="32" viewBox="0 0 32 32" fill="none" xmlns="http://www.w3.org/2000/svg">
<g clip-path="url(#clip0_1986_2084)">
<path d="M16 31.9998C24.8366 31.9998 32 24.8363 32 15.9998C32 7.1632 24.8366 -0.000244141 16 -0.000244141C7.16344 -0.000244141 0 7.1632 0 15.9998C0 24.8363 7.16344 31.9998 16 31.9998Z" fill="#007AB9"/>
<path d="M25.5594 17.2872V23.8836H21.7349V17.7292C21.7349 16.1839 21.1827 15.1286 19.798 15.1286C18.7413 15.1286 18.1135 15.8391 17.8363 16.5271C17.7356 16.7729 17.7097 17.1143 17.7097 17.4591V23.8833H13.8849C13.8849 23.8833 13.9363 13.4599 13.8849 12.3809H17.71V14.0109C17.7023 14.0237 17.6914 14.0363 17.6846 14.0485H17.71V14.0109C18.2182 13.2288 19.1246 12.1108 21.1568 12.1108C23.673 12.1108 25.5594 13.7548 25.5594 17.2872ZM9.88394 6.8363C8.57566 6.8363 7.71973 7.69509 7.71973 8.8234C7.71973 9.92775 8.55084 10.8113 9.83374 10.8113H9.85856C11.1925 10.8113 12.0219 9.92775 12.0219 8.8234C11.9965 7.69509 11.1925 6.8363 9.88394 6.8363ZM7.94704 23.8836H11.7704V12.3809H7.94704V23.8836Z" fill="#F1F2F2"/>
</g>
<defs>
<clipPath id="clip0_1986_2084">
<rect width="32" height="32" fill="white"/>
</clipPath>
</defs>
</svg>
