<svg width="32" height="32" viewBox="0 0 32 32" fill="none" xmlns="http://www.w3.org/2000/svg">
<g clip-path="url(#clip0_1986_2039)">
<path fill-rule="evenodd" clip-rule="evenodd" d="M16 0C24.8369 0 32 7.16313 32 16C32 24.8369 24.8369 32 16 32C7.16313 32 0 24.8369 0 16C0 7.16313 7.16313 0 16 0Z" fill="url(#paint0_linear_1986_2039)"/>
<path d="M14.6976 19.0382C14.2032 21.6294 13.5995 24.1144 11.8114 25.4119C11.2595 21.495 12.622 18.5532 13.2545 15.4307C12.1757 13.6144 13.3845 9.96005 15.6595 10.8607C18.4595 11.9682 13.2351 17.6119 16.742 18.3169C20.4039 19.0525 21.8989 11.9632 19.6282 9.65817C16.3476 6.32942 10.0782 9.58192 10.8495 14.3482C11.037 15.5132 12.2407 15.8669 11.3301 17.475C9.23074 17.0094 8.60386 15.3532 8.68449 13.1457C8.81449 9.5313 11.9314 7.0013 15.0582 6.6513C19.0126 6.2088 22.7239 8.10317 23.2364 11.8225C23.8132 16.0207 21.4514 20.5675 17.2232 20.2407C16.077 20.1519 15.5957 19.5838 14.6976 19.0382Z" fill="white"/>
</g>
<defs>
<linearGradient id="paint0_linear_1986_2039" x1="4.23938" y1="5.15125" x2="29.6369" y2="24.3737" gradientUnits="userSpaceOnUse">
<stop stop-color="#D0272C"/>
<stop offset="1" stop-color="#E62027"/>
</linearGradient>
<clipPath id="clip0_1986_2039">
<rect width="32" height="32" fill="white"/>
</clipPath>
</defs>
</svg>
