<svg width="17" height="18" viewBox="0 0 17 18" fill="none" xmlns="http://www.w3.org/2000/svg">
<path d="M8.59995 0.600098C6.93859 0.600098 5.31454 1.09275 3.93316 2.01575C2.55179 2.93876 1.47514 4.25066 0.839367 5.78556C0.203591 7.32045 0.0372428 9.00941 0.361359 10.6389C0.685474 12.2683 1.4855 13.765 2.66026 14.9398C3.83502 16.1146 5.33175 16.9146 6.96119 17.2387C8.59064 17.5628 10.2796 17.3965 11.8145 16.7607C13.3494 16.1249 14.6613 15.0483 15.5843 13.6669C16.5073 12.2855 17 10.6615 17 9.0001C16.9992 6.77252 16.1139 4.63642 14.5388 3.06129C12.9636 1.48615 10.8275 0.600899 8.59995 0.600098ZM11.3664 10.9825C11.4194 11.0331 11.4617 11.0939 11.4906 11.1613C11.5195 11.2286 11.5344 11.3012 11.5344 11.3745C11.5344 11.4478 11.5195 11.5204 11.4906 11.5877C11.4617 11.6551 11.4194 11.7159 11.3664 11.7665C11.3164 11.8203 11.2557 11.8631 11.1882 11.8921C11.1206 11.921 11.0478 11.9355 10.9744 11.9345C10.9011 11.9344 10.8286 11.9194 10.7612 11.8906C10.6938 11.8617 10.633 11.8195 10.5824 11.7665L8.59995 9.7841L6.61755 11.7665C6.56692 11.8195 6.50609 11.8617 6.43872 11.8906C6.37136 11.9194 6.29885 11.9344 6.22555 11.9345C6.1521 11.9355 6.07926 11.921 6.01174 11.8921C5.94422 11.8631 5.88352 11.8203 5.83355 11.7665C5.78046 11.7159 5.73819 11.6551 5.70931 11.5877C5.68043 11.5204 5.66554 11.4478 5.66554 11.3745C5.66554 11.3012 5.68043 11.2286 5.70931 11.1613C5.73819 11.0939 5.78046 11.0331 5.83355 10.9825L7.81595 9.0001L5.83355 7.0177C5.73132 6.91337 5.67438 6.77292 5.67512 6.62686C5.67586 6.48079 5.73421 6.34092 5.83749 6.23764C5.94078 6.13435 6.08065 6.076 6.22671 6.07526C6.37278 6.07453 6.51323 6.13146 6.61755 6.2337L8.59995 8.2161L10.5824 6.2337C10.6336 6.18136 10.6948 6.13971 10.7623 6.11116C10.8298 6.08261 10.9022 6.06771 10.9755 6.06734C11.0488 6.06697 11.1214 6.08113 11.1892 6.109C11.2569 6.13687 11.3185 6.1779 11.3703 6.22972C11.4221 6.28153 11.4632 6.3431 11.491 6.41087C11.5189 6.47864 11.5331 6.55126 11.5327 6.62454C11.5323 6.69781 11.5174 6.77029 11.4889 6.83777C11.4603 6.90525 11.4187 6.96641 11.3664 7.0177L9.38395 9.0001L11.3664 10.9825Z" fill="#F44336"/>
</svg>
