<svg width="32" height="32" viewBox="0 0 32 32" fill="none" xmlns="http://www.w3.org/2000/svg">
<g clip-path="url(#clip0_1986_2063)">
<circle cx="16" cy="16" r="16" fill="white"/>
<path fill-rule="evenodd" clip-rule="evenodd" d="M22.362 12.737C22.368 12.878 22.372 13.019 22.372 13.162C22.372 17.499 19.07 22.501 13.032 22.501C11.178 22.501 9.453 21.958 8 21.027C8.257 21.057 8.518 21.072 8.783 21.072C10.321 21.072 11.736 20.548 12.86 19.667C11.423 19.641 10.211 18.692 9.793 17.388C9.994 17.426 10.199 17.446 10.411 17.446C10.71 17.446 11 17.406 11.276 17.331C9.774 17.03 8.643 15.703 8.643 14.113V14.071C9.085 14.317 9.592 14.465 10.13 14.482C9.249 13.893 8.669 12.888 8.669 11.75C8.669 11.148 8.831 10.584 9.114 10.099C10.733 12.085 13.152 13.392 15.88 13.529C15.824 13.289 15.795 13.038 15.795 12.781C15.795 10.968 17.265 9.498 19.077 9.498C20.022 9.498 20.875 9.897 21.473 10.535C22.221 10.388 22.924 10.115 23.558 9.739C23.313 10.505 22.792 11.148 22.115 11.555C22.779 11.475 23.411 11.299 24 11.038C23.56 11.696 23.003 12.274 22.362 12.737ZM16 0C7.163 0 0 7.163 0 16C0 24.836 7.163 32 16 32C24.837 32 32 24.836 32 16C32 7.163 24.837 0 16 0Z" fill="#41A1F2"/>
</g>
<defs>
<clipPath id="clip0_1986_2063">
<rect width="32" height="32" fill="white"/>
</clipPath>
</defs>
</svg>
