<svg enable-background="new 0 0 512 512" viewBox="0 0 512 512" width="80" xmlns="http://www.w3.org/2000/svg" xmlns:xlink="http://www.w3.org/1999/xlink"><radialGradient id="a" cx="367.2448" cy="377.2114" gradientUnits="userSpaceOnUse" r="180.018"><stop offset="0" stop-color="#f3f3ff"/><stop offset=".08921212" stop-color="#e3e2ff"/><stop offset=".3958" stop-color="#b0acff"/><stop offset=".6607" stop-color="#8b84ff"/><stop offset=".8709" stop-color="#746cff"/><stop offset="1" stop-color="#6c63ff"/></radialGradient><path d="m217.9 473.8c-119.8 0-217.3-97.5-217.3-217.3s97.5-217.4 217.3-217.4c37.7 0 74.8 9.8 107.4 28.3 10 5.7 13.5 18.4 7.8 28.4s-18.4 13.5-28.4 7.8c-26.3-15-56.3-22.9-86.8-22.9-96.9 0-175.7 78.8-175.7 175.7s78.8 175.7 175.7 175.7c49.1 0 94.7-19.8 128.3-55.7 7.9-8.4 21-8.8 29.4-1 8.4 7.9 8.8 21 1 29.4-40.9 43.9-98.7 69-158.7 69z" fill="url(#a)"/><path d="m191.3 214-44.2-40.1c-8.5-7.7-21.7-7.1-29.4 1.4s-7.1 21.7 1.4 29.4l47.8 43.4c3.6-14.2 12.5-26.3 24.4-34.1z" fill="#24e2ac"/><path d="m456.3 84.7c-7.1-9-20.2-10.6-29.3-3.4l-170.5 134.7c11.4 8.5 19.6 21 22.3 35.5l174-137.5c9.1-7.2 10.6-20.3 3.5-29.3z" fill="#24e2ac"/><path d="m240.3 228.8c-5.3-2.9-11.4-4.5-17.8-4.5-5.7 0-11.1 1.3-15.9 3.6-12.8 6-21.8 19-21.8 34.1 0 .8.1 1.7.1 2.5 1.3 19.7 17.6 35.2 37.6 35.2 19.3 0 35.2-14.6 37.4-33.3.2-1.4.3-2.9.3-4.4 0-14.4-8-26.9-19.9-33.2z" fill="#3deab5"/><path d="m424 267.5h-60.1c-1.4 0-2.5-1.1-2.5-2.5v-54.3c0-1.4 1.1-2.5 2.5-2.5h60.1c1.4 0 2.5 1.1 2.5 2.5v54.3c-.1 1.4-1.2 2.5-2.5 2.5z" fill="#ccf"/><path d="m509.5 267.5h-60.1c-1.4 0-2.5-1.1-2.5-2.5v-54.3c0-1.4 1.1-2.5 2.5-2.5h60.1c1.4 0 2.5 1.1 2.5 2.5v54.3c0 1.4-1.1 2.5-2.5 2.5z" fill="#6c62ff"/><g fill="#ccf"><path d="m424 344h-60.1c-1.4 0-2.5-1.1-2.5-2.5v-54.3c0-1.4 1.1-2.5 2.5-2.5h60.1c1.4 0 2.5 1.1 2.5 2.5v54.3c-.1 1.4-1.2 2.5-2.5 2.5z"/><path d="m509.5 344h-60.1c-1.4 0-2.5-1.1-2.5-2.5v-54.3c0-1.4 1.1-2.5 2.5-2.5h60.1c1.4 0 2.5 1.1 2.5 2.5v54.3c0 1.4-1.1 2.5-2.5 2.5z"/></g></svg>