<?xml version="1.0" encoding="utf-8"?>
<!-- Generator: Adobe Illustrator 23.0.0, SVG Export Plug-In . SVG Version: 6.00 Build 0)  -->
<svg version="1.1" id="Layer_1" xmlns="http://www.w3.org/2000/svg" xmlns:xlink="http://www.w3.org/1999/xlink" x="0px" y="0px"
	 viewBox="0 0 512 512" width="80px" style="enable-background:new 0 0 512 512;" xml:space="preserve">
<style type="text/css">
	.st0{fill:url(#SVGID_1_);}
	.st1{fill:#24E2AC;}
	.st2{fill:#3DEAB5;}
	.st3{fill:#CCCCFF;}
	.st4{fill:#6C62FF;}
</style>
<g>
	<g>
		<radialGradient id="SVGID_1_" cx="367.2448" cy="377.2114" r="180.018" gradientUnits="userSpaceOnUse">
			<stop  offset="0" style="stop-color:#F3F3FF"/>
			<stop  offset="8.921212e-02" style="stop-color:#E3E2FF"/>
			<stop  offset="0.3958" style="stop-color:#B0ACFF"/>
			<stop  offset="0.6607" style="stop-color:#8B84FF"/>
			<stop  offset="0.8709" style="stop-color:#746CFF"/>
			<stop  offset="1" style="stop-color:#6C63FF"/>
		</radialGradient>
		<path class="st0" d="M217.9,473.8C98.1,473.8,0.6,376.3,0.6,256.5S98.1,39.1,217.9,39.1c37.7,0,74.8,9.8,107.4,28.3
			c10,5.7,13.5,18.4,7.8,28.4c-5.7,10-18.4,13.5-28.4,7.8c-26.3-15-56.3-22.9-86.8-22.9c-96.9,0-175.7,78.8-175.7,175.7
			s78.8,175.7,175.7,175.7c49.1,0,94.7-19.8,128.3-55.7c7.9-8.4,21-8.8,29.4-1c8.4,7.9,8.8,21,1,29.4
			C335.7,448.7,277.9,473.8,217.9,473.8z"/>
	</g>
	<path class="st1" d="M191.3,214l-44.2-40.1c-8.5-7.7-21.7-7.1-29.4,1.4c-7.7,8.5-7.1,21.7,1.4,29.4l47.8,43.4
		C170.5,233.9,179.4,221.8,191.3,214z"/>
	<path class="st1" d="M456.3,84.7c-7.1-9-20.2-10.6-29.3-3.4L256.5,216c11.4,8.5,19.6,21,22.3,35.5l174-137.5
		C461.9,106.8,463.4,93.7,456.3,84.7z"/>
	<path class="st2" d="M240.3,228.8c-5.3-2.9-11.4-4.5-17.8-4.5c-5.7,0-11.1,1.3-15.9,3.6c-12.8,6-21.8,19-21.8,34.1
		c0,0.8,0.1,1.7,0.1,2.5c1.3,19.7,17.6,35.2,37.6,35.2c19.3,0,35.2-14.6,37.4-33.3c0.2-1.4,0.3-2.9,0.3-4.4
		C260.2,247.6,252.2,235.1,240.3,228.8z"/>
	<path class="st3" d="M424,267.5h-60.1c-1.4,0-2.5-1.1-2.5-2.5v-54.3c0-1.4,1.1-2.5,2.5-2.5H424c1.4,0,2.5,1.1,2.5,2.5v54.3
		C426.4,266.4,425.3,267.5,424,267.5z"/>
	<path class="st4" d="M509.5,267.5h-60.1c-1.4,0-2.5-1.1-2.5-2.5v-54.3c0-1.4,1.1-2.5,2.5-2.5h60.1c1.4,0,2.5,1.1,2.5,2.5v54.3
		C512,266.4,510.9,267.5,509.5,267.5z"/>
	<path class="st3" d="M424,344h-60.1c-1.4,0-2.5-1.1-2.5-2.5v-54.3c0-1.4,1.1-2.5,2.5-2.5H424c1.4,0,2.5,1.1,2.5,2.5v54.3
		C426.4,342.9,425.3,344,424,344z"/>
	<path class="st3" d="M509.5,344h-60.1c-1.4,0-2.5-1.1-2.5-2.5v-54.3c0-1.4,1.1-2.5,2.5-2.5h60.1c1.4,0,2.5,1.1,2.5,2.5v54.3
		C512,342.9,510.9,344,509.5,344z"/>
</g>
</svg>
