<svg width="211" height="48" viewBox="0 0 211 48" fill="none" xmlns="http://www.w3.org/2000/svg">
<g clip-path="url(#clip0_883_1772)">
<path d="M24.0364 43.2928C13.489 43.2928 4.72656 34.7002 4.72656 24.0001C4.72656 13.3 13.3267 4.70746 24.0364 4.70746C27.444 4.70746 30.6893 5.51807 33.6101 7.30143C34.4215 7.7878 34.746 8.92266 34.2592 9.73327C33.7724 10.5439 32.6365 10.8681 31.8252 10.3818C29.5535 9.08478 26.7949 8.27417 24.1986 8.27417C15.5985 8.27417 8.62098 15.2455 8.62098 23.838C8.62098 32.4305 15.5985 39.4018 24.1986 39.4018C28.5798 39.4018 32.6365 37.6185 35.5573 34.5381C36.2064 33.7275 37.5046 33.7275 38.1536 34.376C38.965 35.0245 38.965 36.3215 38.3159 36.97C34.5837 41.1852 29.3912 43.2928 24.0364 43.2928Z" fill="url(#paint0_radial_883_1772)"/>
<path d="M21.7646 20.4335L17.8701 16.8668C17.0588 16.2183 15.9229 16.2183 15.2739 17.0289C14.6248 17.8395 14.6248 18.9744 15.4361 19.6229L19.6551 23.5138C19.8174 22.0547 20.6287 21.082 21.7646 20.4335Z" fill="#24E2AC"/>
<path d="M45.1312 8.92276C44.4821 8.11214 43.3463 7.95002 42.5349 8.59851L27.4441 20.5956C28.4177 21.4062 29.229 22.379 29.3913 23.6759L44.8067 11.5167C45.7803 10.8682 45.7803 9.73337 45.1312 8.92276Z" fill="#24E2AC"/>
<path d="M26.1458 21.7304C25.659 21.4062 25.1722 21.4062 24.5231 21.4062C24.0363 21.4062 23.5495 21.5683 23.0627 21.7304C21.9268 22.2168 21.1155 23.3517 21.1155 24.8108V24.9729C21.2777 26.7563 22.7381 28.0532 24.5231 28.0532C26.308 28.0532 27.6062 26.7563 27.7684 25.135C27.7684 24.9729 27.7684 24.8108 27.7684 24.8108C27.7684 23.3517 27.1194 22.2168 26.1458 21.7304Z" fill="#3DEAB5"/>
<path d="M49.5124 19.785H44.8066C44.4821 19.785 44.3198 20.1093 44.3198 20.2714V24.3245C44.3198 24.6487 44.6444 24.8108 44.8066 24.8108H49.5124C49.8369 24.8108 49.9992 24.4866 49.9992 24.3245V20.2714C50.1615 20.1093 49.8369 19.785 49.5124 19.785Z" fill="#6C62FF"/>
<path d="M42.048 19.785H37.3423C37.0177 19.785 36.8555 20.1093 36.8555 20.2714V24.3245C36.8555 24.6487 37.18 24.8108 37.3423 24.8108H42.048C42.3726 24.8108 42.5348 24.4866 42.5348 24.3245V20.2714C42.5348 20.1093 42.3726 19.785 42.048 19.785Z" fill="#CCCCFF"/>
<path d="M42.048 26.5941H37.3423C37.0177 26.5941 36.8555 26.9184 36.8555 27.0805V31.1336C36.8555 31.4578 37.18 31.6199 37.3423 31.6199H42.048C42.3726 31.6199 42.5348 31.2957 42.5348 31.1336V27.0805C42.5348 26.9184 42.3726 26.5941 42.048 26.5941Z" fill="#CCCCFF"/>
<path d="M49.5124 26.5941H44.8066C44.4821 26.5941 44.3198 26.9184 44.3198 27.0805V31.1336C44.3198 31.4578 44.6444 31.6199 44.8066 31.6199H49.5124C49.8369 31.6199 49.9992 31.2957 49.9992 31.1336V27.0805C50.1615 26.9184 49.8369 26.5941 49.5124 26.5941Z" fill="#CCCCFF"/>
<path d="M68.703 31.5388C66.7558 31.5388 65.1332 31.2146 63.5105 30.8903V28.6206C64.9709 29.107 66.7558 29.4312 68.703 29.4312C71.2993 29.4312 72.4352 28.6206 72.4352 26.8373C72.4352 25.8645 71.9484 24.8918 70.0012 24.8918H67.5672C64.4841 24.8918 63.0237 23.5948 63.0237 20.6766C63.0237 17.5963 65.1332 16.1371 69.6766 16.1371C71.2993 16.1371 72.922 16.4614 74.5446 16.7856V18.8932C73.0842 18.4069 71.4616 18.0826 69.6766 18.0826C66.9181 18.0826 65.4577 18.8932 65.4577 20.5145C65.4577 21.8115 66.1068 22.4599 67.5672 22.4599H70.0012C73.2465 22.4599 74.8692 23.7569 74.8692 26.6751C74.8692 29.9176 72.922 31.5388 68.703 31.5388Z" fill="#303042"/>
<path d="M82.8203 31.3768C78.7636 31.3768 76.8164 29.4313 76.8164 25.7025C76.8164 22.1358 78.7636 20.3524 82.8203 20.3524C83.7939 20.3524 84.6053 20.5145 85.5789 20.6767V22.6221C84.7675 22.46 83.7939 22.2979 82.9826 22.2979C80.5486 22.2979 79.4127 23.4328 79.4127 25.7025C79.4127 28.2964 80.7108 29.5934 82.9826 29.5934C83.7939 29.5934 84.6053 29.4313 85.5789 29.2692V31.2147C84.7675 31.2147 83.7939 31.3768 82.8203 31.3768Z" fill="#303042"/>
<path d="M95.4772 31.3767V24.4054C95.4772 22.9463 94.8282 22.2978 93.3677 22.2978C92.3941 22.2978 91.4206 22.6221 90.4469 23.4327V31.3767H88.0129V16.1371H90.4469V22.1357L90.7715 21.8114C91.5828 20.8387 92.7187 20.3523 94.0168 20.3523C96.6131 20.3523 97.9112 21.6493 97.9112 24.4054V31.3767H95.4772Z" fill="#303042"/>
<path d="M106.674 31.3768C102.617 31.3768 100.67 29.5934 100.67 25.7025C100.67 21.8115 102.292 20.3524 105.862 20.3524C109.432 20.3524 110.893 21.9736 110.893 25.5404C110.893 25.8646 110.893 26.351 110.893 26.6752H103.266V26.8373C103.266 28.6207 104.564 29.4313 106.998 29.4313C108.134 29.4313 109.108 29.2692 110.243 29.1071V31.0525C109.108 31.2147 107.972 31.3768 106.674 31.3768ZM105.7 22.1358C104.077 22.1358 103.104 23.1085 102.941 24.7297V24.8919H108.296V24.5676C108.459 23.1085 107.485 22.1358 105.7 22.1358Z" fill="#303042"/>
<path d="M118.194 31.3768C114.625 31.3768 112.84 29.4313 112.84 25.5403C112.84 21.9736 114.625 20.1903 118.032 20.1903C118.843 20.1903 119.493 20.3524 120.304 20.6767L120.628 20.8388V15.9751H123.062V30.5662C121.44 31.2147 119.817 31.3768 118.194 31.3768ZM118.194 22.2979C116.247 22.2979 115.274 23.4328 115.274 25.5403C115.274 28.1343 116.247 29.2692 118.357 29.2692C119.168 29.2692 119.817 29.1071 120.628 28.9449H120.791V22.9464H120.628C119.979 22.46 119.168 22.2979 118.194 22.2979Z" fill="#303042"/>
<path d="M133.123 31.3768L132.799 29.7556L132.474 29.9177C131.176 30.8904 129.878 31.3768 128.417 31.3768C126.146 31.3768 125.172 30.0798 125.172 27.4858V20.3524H127.606V27.3237C127.606 29.1071 128.58 29.4313 129.391 29.4313C130.365 29.4313 131.338 29.1071 132.474 28.2964V20.3524H134.908V31.3768H133.123Z" fill="#303042"/>
<path d="M140.101 16.1371H137.667V31.3767H140.101V16.1371Z" fill="#303042"/>
<path d="M148.214 31.8631C144.157 31.8631 142.21 30.0798 142.21 26.1888C142.21 22.2979 143.833 20.8387 147.403 20.8387C150.973 20.8387 152.433 22.46 152.433 26.0267C152.433 26.3509 152.433 26.8373 152.433 27.1615H144.806V27.3237C144.806 29.107 146.105 29.9176 148.539 29.9176C149.674 29.9176 150.648 29.7555 151.784 29.5934V31.5389C150.81 31.8631 149.675 31.8631 148.214 31.8631ZM147.403 22.7842C145.78 22.7842 144.806 23.757 144.644 25.3782V25.5403H149.999V25.2161C149.999 23.5948 149.025 22.7842 147.403 22.7842Z" fill="#303042"/>
<path d="M154.38 31.8631V16.6236H161.196C164.279 16.6236 165.739 17.9206 165.739 20.8388C165.739 23.9191 163.63 25.7025 159.573 26.351L159.248 24.2434C161.845 23.757 163.143 22.6221 163.143 21.0009C163.143 19.5418 162.331 18.8933 161.033 18.8933H156.977V31.8631H154.38Z" fill="#303042"/>
<path d="M167.848 31.8632V20.8388H169.795L170.12 22.4601L170.444 22.1358C171.418 21.3252 172.229 20.8388 173.365 20.6767V22.6222C172.392 22.6222 171.418 23.1085 170.444 24.0813V31.8632H167.848Z" fill="#303042"/>
<path d="M180.018 31.8631C175.962 31.8631 174.014 30.0798 174.014 26.1888C174.014 22.2979 175.637 20.8387 179.207 20.8387C182.777 20.8387 184.237 22.46 184.237 26.0267C184.237 26.3509 184.237 26.8373 184.237 27.1615H176.611V27.3237C176.611 29.107 177.909 29.9176 180.343 29.9176C181.479 29.9176 182.452 29.7555 183.588 29.5934V31.5389C182.615 31.8631 181.479 31.8631 180.018 31.8631ZM179.207 22.7842C177.584 22.7842 176.611 23.757 176.448 25.3782V25.5403H181.803V25.2161C181.803 23.5948 180.992 22.7842 179.207 22.7842Z" fill="#303042"/>
<path d="M190.403 32.0253C188.943 32.0253 187.483 31.8632 186.347 31.3768V29.4313C187.645 29.9177 188.943 30.0798 190.566 30.0798C192.351 30.0798 192.675 29.2692 192.675 28.6207C192.675 27.9722 192.351 27.3237 191.215 27.3237H189.105C186.833 27.3237 185.86 26.1889 185.86 24.0813C185.86 21.9737 187.483 20.6767 190.728 20.6767C192.026 20.6767 193.486 20.8388 194.622 21.3252V23.2707C193.486 22.7843 192.026 22.6222 190.728 22.6222C189.105 22.6222 188.132 23.1085 188.132 24.0813C188.132 24.7298 188.456 25.3783 189.754 25.3783H191.539C193.973 25.3783 195.109 26.5131 195.109 28.6207C195.109 30.8905 193.649 32.0253 190.403 32.0253Z" fill="#303042"/>
<path d="M201.113 32.0253C199.652 32.0253 198.192 31.8632 197.056 31.3768V29.4313C198.354 29.9177 199.652 30.0798 201.275 30.0798C203.06 30.0798 203.385 29.2692 203.385 28.6207C203.385 27.9722 203.06 27.3237 201.924 27.3237H199.815C197.543 27.3237 196.569 26.1889 196.569 24.0813C196.569 21.9737 198.192 20.6767 201.437 20.6767C202.735 20.6767 204.196 20.8388 205.332 21.3252V23.2707C204.196 22.7843 202.735 22.6222 201.437 22.6222C199.815 22.6222 198.841 23.1085 198.841 24.0813C198.841 24.7298 199.166 25.3783 200.464 25.3783H202.249C204.683 25.3783 205.819 26.5131 205.819 28.6207C205.656 30.8905 204.196 32.0253 201.113 32.0253Z" fill="#303042"/>
</g>
<defs>
<radialGradient id="paint0_radial_883_1772" cx="0" cy="0" r="1" gradientUnits="userSpaceOnUse" gradientTransform="translate(37.3096 34.8179) scale(15.9543 15.9402)">
<stop stop-color="#F3F3FF"/>
<stop offset="0.09" stop-color="#E3E2FF"/>
<stop offset="0.4" stop-color="#B0ACFF"/>
<stop offset="0.66" stop-color="#8B84FF"/>
<stop offset="0.87" stop-color="#746CFF"/>
<stop offset="1" stop-color="#6C63FF"/>
</radialGradient>
<clipPath id="clip0_883_1772">
<rect width="201.818" height="39.2727" fill="white" transform="translate(4.36353 4.36365)"/>
</clipPath>
</defs>
</svg>
